<?xml version="1.0" standalone="no"?>
<!DOCTYPE svg PUBLIC "-//W3C//DTD SVG 20010904//EN"
 "http://www.w3.org/TR/2001/REC-SVG-20010904/DTD/svg10.dtd">
<svg version="1.0" xmlns="http://www.w3.org/2000/svg"
 width="1280.000000pt" height="640.000000pt" viewBox="0 0 1280.000000 640.000000"
 preserveAspectRatio="xMidYMid meet">
<metadata>
Created by potrace 1.15, written by Peter Selinger 2001-2017
</metadata>
<g transform="translate(0.000000,640.000000) scale(0.100000,-0.100000)"
fill="#000000" stroke="none">
<path d="M6702 4258 c-50 -25 -40 -89 19 -118 34 -18 38 -23 29 -39 -5 -11
-25 -24 -44 -31 -26 -8 -546 -8 -2028 -1 -2270 12 -4173 14 -4461 4 l-197 -6
0 -53 0 -54 3553 -2 3552 -3 103 -23 c164 -36 315 -85 482 -157 326 -140 418
-178 510 -211 119 -42 134 -58 126 -136 -4 -44 -2 -61 10 -72 26 -26 52 -19
73 21 13 25 -5 80 -37 117 -17 19 -16 19 18 12 137 -29 314 -22 454 19 69 20
323 141 314 150 -2 2 -37 -6 -78 -17 -74 -19 -142 -20 -265 -2 -32 4 -46 1
-69 -17 -24 -19 -28 -27 -23 -60 4 -27 1 -39 -10 -43 -29 -12 -223 -6 -290 9
-123 26 -330 104 -580 218 -161 74 -343 146 -433 172 l-75 22 630 6 c347 4
1200 8 1896 9 l1266 3 37 -32 c32 -29 44 -33 92 -33 51 0 133 24 122 35 -3 3
-25 12 -49 19 -40 13 -16 14 248 15 197 1 300 -3 317 -10 18 -9 33 -8 58 1 20
7 110 14 228 17 107 3 197 7 199 9 2 2 -81 4 -185 5 -143 0 -184 3 -166 11 12
6 22 15 22 20 0 16 -91 8 -130 -12 -37 -19 -59 -20 -357 -20 -175 0 -484 3
-687 7 l-369 6 44 23 c41 21 87 60 78 67 -2 2 -47 0 -99 -4 -88 -6 -96 -9
-121 -37 -14 -16 -28 -35 -30 -41 -3 -9 -280 -8 -1139 4 -624 8 -1431 18
-1792 22 -362 3 -658 9 -658 12 0 3 7 15 15 25 29 39 13 117 -31 158 -26 23
-64 29 -92 16z"/>
<path d="M0 3768 l0 -53 2062 0 2063 0 130 -23 c329 -57 648 -171 1045 -373
204 -103 331 -190 451 -309 124 -122 169 -227 154 -358 -25 -201 -193 -290
-320 -168 -51 48 -58 76 -20 76 61 0 85 77 39 124 -34 33 -46 33 -86 -3 -28
-25 -32 -34 -31 -78 1 -61 19 -98 72 -146 68 -61 147 -72 227 -32 91 47 133
132 134 271 0 136 -46 246 -144 347 -20 20 -35 37 -33 37 2 0 69 -31 148 -69
226 -110 405 -160 517 -147 106 12 172 73 172 158 0 39 -7 54 -49 110 -27 36
-94 105 -148 154 -189 171 -245 230 -241 255 6 45 31 47 134 11 85 -30 488
-107 479 -92 -2 3 -76 41 -166 85 l-162 80 -135 0 -134 0 -24 -28 c-50 -58
-27 -99 148 -261 265 -245 301 -303 233 -384 -96 -114 -378 -37 -860 235 -88
50 -198 109 -244 132 -45 23 -81 45 -78 47 3 3 14 1 24 -4 43 -23 185 -44 276
-40 136 5 209 50 267 164 54 109 33 225 -52 281 -36 24 -52 28 -112 28 -89 0
-152 -33 -191 -99 -34 -59 -31 -121 9 -149 15 -10 76 1 104 19 38 25 18 115
-29 127 -55 15 30 77 105 77 62 0 112 -25 144 -71 21 -29 23 -43 19 -94 -7
-98 -64 -187 -145 -227 -38 -18 -63 -23 -127 -22 -129 1 -211 24 -580 159
-561 205 -718 244 -1066 264 -96 6 -716 13 -1379 16 -663 3 -1288 10 -1390 15
-102 5 -416 9 -697 10 l-513 0 0 -52z"/>
<path d="M0 3535 l0 -48 263 7 c144 3 732 7 1307 8 1028 3 1046 3 1085 -17 43
-22 60 -55 27 -55 -23 0 -52 -30 -52 -53 0 -9 11 -24 25 -33 73 -48 147 86 80
143 l-28 24 399 -4 c362 -3 407 -6 489 -25 349 -81 570 -244 645 -475 6 -21
12 -68 12 -105 0 -174 -123 -315 -337 -388 -68 -23 -98 -27 -200 -28 -168 -1
-277 33 -343 109 -52 58 -65 100 -66 200 -1 74 3 99 23 142 30 68 114 146 199
186 60 29 76 32 162 32 86 0 99 -3 143 -28 119 -70 171 -239 104 -339 -42 -61
-131 -101 -188 -83 -22 7 -22 13 -4 87 15 58 -47 138 -105 138 -30 0 -87 -56
-105 -104 -16 -41 -16 -46 0 -80 33 -69 117 -103 230 -93 155 15 238 99 239
242 1 172 -136 305 -315 305 -118 0 -267 -71 -342 -162 -62 -76 -81 -130 -82
-233 0 -137 41 -228 130 -284 l42 -27 -59 -17 c-112 -33 -171 -117 -142 -203
19 -55 45 -85 95 -111 61 -31 94 -29 130 6 26 26 28 33 18 55 -13 27 -57 50
-86 44 -10 -2 -23 -18 -29 -38 -15 -43 -37 -42 -76 2 -69 80 -32 169 87 209
27 9 73 12 140 9 237 -9 325 -4 410 23 271 88 417 299 364 527 -30 129 -153
286 -297 378 -145 92 -335 157 -532 181 -54 6 -703 13 -1772 17 l-1688 6 0
-47z"/>
</g>
</svg>
